<svg class="edit-control-item-icon" width="21" height="23" viewBox="0 0 21 23" fill="none" xmlns="http://www.w3.org/2000/svg">
                                        <path d="M6.35938 0.92V3.68H14.6394V0.92C14.6394 0.676001 14.5424 0.441995 14.3699 0.269462C14.1974 0.0969283 13.9634 0 13.7194 0H7.27937C7.03538 0 6.80137 0.0969283 6.62884 0.269462C6.4563 0.441995 6.35938 0.676001 6.35938 0.92V0.92Z" fill="#ACACAC"></path>
                                        <path d="M0.839844 2.76V3.68H20.1598V2.76C20.1598 2.516 20.0629 2.28199 19.8904 2.10946C19.7178 1.93692 19.4838 1.84 19.2398 1.84H1.75984C1.51584 1.84 1.28184 1.93692 1.10931 2.10946C0.936772 2.28199 0.839844 2.516 0.839844 2.76V2.76ZM2.67984 5.52L4.34688 21.3523C4.3944 21.8045 4.60767 22.2231 4.94557 22.5274C5.28347 22.8316 5.72206 23 6.17676 23H14.8238C15.2785 23 15.7171 22.8316 16.055 22.5274C16.3929 22.2231 16.6062 21.8045 16.6537 21.3523L18.3198 5.52H2.67984ZM6.89068 21.1572C6.77021 21.1667 6.64905 21.1522 6.53416 21.1148C6.41926 21.0773 6.31288 21.0176 6.22111 20.939C6.12933 20.8603 6.05396 20.7644 5.99931 20.6566C5.94465 20.5488 5.91179 20.4313 5.9026 20.3108L4.9826 8.35084C4.96382 8.10757 5.04244 7.86681 5.20117 7.68151C5.3599 7.49621 5.58574 7.38155 5.829 7.36276C5.94973 7.35208 6.07137 7.36562 6.18678 7.4026C6.3022 7.43958 6.40907 7.49924 6.50111 7.57808C6.59315 7.65693 6.66852 7.75337 6.72278 7.86174C6.77704 7.97011 6.8091 8.08822 6.81708 8.20916L7.73708 20.1692C7.75586 20.4124 7.67724 20.6532 7.51851 20.8385C7.35978 21.0238 7.13395 21.1384 6.89068 21.1572V21.1572ZM11.4198 20.24C11.4198 20.484 11.3229 20.718 11.1504 20.8905C10.9778 21.0631 10.7438 21.16 10.4998 21.16C10.2558 21.16 10.0218 21.0631 9.84931 20.8905C9.67677 20.718 9.57984 20.484 9.57984 20.24V8.28C9.57984 8.036 9.67677 7.80199 9.84931 7.62946C10.0218 7.45692 10.2558 7.36 10.4998 7.36C10.7438 7.36 10.9778 7.45692 11.1504 7.62946C11.3229 7.80199 11.4198 8.036 11.4198 8.28V20.24ZM15.0971 20.3108C15.0878 20.4313 15.0548 20.5487 15.0002 20.6565C14.9455 20.7642 14.8701 20.8601 14.7783 20.9387C14.6866 21.0173 14.5803 21.077 14.4654 21.1145C14.3506 21.152 14.2295 21.1665 14.109 21.1572C13.9885 21.1479 13.8711 21.115 13.7634 21.0603C13.6557 21.0056 13.5598 20.9302 13.4812 20.8385C13.4026 20.7467 13.3428 20.6404 13.3053 20.5256C13.2678 20.4107 13.2533 20.2896 13.2626 20.1692L14.1826 8.20916C14.1901 8.08805 14.2218 7.96968 14.2759 7.86106C14.33 7.75245 14.4054 7.65581 14.4975 7.57687C14.5897 7.49793 14.6968 7.43831 14.8124 7.40153C14.928 7.36475 15.0499 7.35156 15.1707 7.36276C15.4139 7.38155 15.6398 7.49621 15.7985 7.68151C15.9572 7.86681 16.0359 8.10757 16.0171 8.35084L15.0971 20.3108V20.3108Z" fill="#ACACAC"></path>
                                    </svg>