<svg width="18" height="17" viewBox="0 0 18 17" fill="none" xmlns="http://www.w3.org/2000/svg">
<path d="M0.251249 5.84614L7.00125 0.179604C7.22175 -0.00597514 7.53825 -0.0527241 7.80675 0.0627316C8.07675 0.176771 8.25 0.42964 8.25 0.708716V2.98029C10.503 3.55119 18 6.2088 18 16.2917C18 16.631 17.745 16.9235 17.3917 16.9873C17.3438 16.9958 17.2965 17 17.25 17C16.9485 17 16.6695 16.8279 16.554 16.5545C14.3303 11.3037 9.99525 10.208 8.25075 9.97917V12.0418C8.25075 12.3209 8.0775 12.5737 7.80825 12.6878C7.7085 12.7303 7.60425 12.7501 7.5 12.7501C7.32 12.7501 7.1415 12.6885 7.00125 12.5709L0.251249 6.90436C0.0914993 6.77049 0 6.57712 0 6.37525C0 6.17338 0.0914993 5.98001 0.251249 5.84614Z" fill="#4A4A4A"/>
</svg>
